<svg xmlns="http://www.w3.org/2000/svg" xmlns:xlink="http://www.w3.org/1999/xlink" contentStyleType="text/css" data-diagram-type="SEQUENCE" height="953px" preserveAspectRatio="none" style="width:1484px;height:953px;background:#FFFFFF;" version="1.1" viewBox="0 0 1484 953" width="1484px" zoomAndPan="magnify"><defs/><g><g><title>User</title><rect fill="#000000" fill-opacity="0.00000" height="758.1563" width="8" x="18.2358" y="97.8125"/><line style="stroke:#181818;stroke-width:0.5;stroke-dasharray:5.0,5.0;" x1="22" x2="22" y1="97.8125" y2="855.9688"/></g><g><title>main.rs</title><rect fill="#000000" fill-opacity="0.00000" height="758.1563" width="8" x="313.3696" y="97.8125"/><line style="stroke:#181818;stroke-width:0.5;stroke-dasharray:5.0,5.0;" x1="317.3091" x2="317.3091" y1="97.8125" y2="855.9688"/></g><g><title>parser.rs</title><rect fill="#000000" fill-opacity="0.00000" height="758.1563" width="8" x="444.7593" y="97.8125"/><line style="stroke:#181818;stroke-width:0.5;stroke-dasharray:5.0,5.0;" x1="448.417" x2="448.417" y1="97.8125" y2="855.9688"/></g><g><title>collectors</title><rect fill="#000000" fill-opacity="0.00000" height="758.1563" width="8" x="585.4146" y="97.8125"/><line style="stroke:#181818;stroke-width:0.5;stroke-dasharray:5.0,5.0;" x1="589.1016" x2="589.1016" y1="97.8125" y2="855.9688"/></g><g><title>publisher.rs</title><rect fill="#000000" fill-opacity="0.00000" height="758.1563" width="8" x="841.5713" y="97.8125"/><line style="stroke:#181818;stroke-width:0.5;stroke-dasharray:5.0,5.0;" x1="845.064" x2="845.064" y1="97.8125" y2="855.9688"/></g><g><title>translator.rs</title><rect fill="#000000" fill-opacity="0.00000" height="758.1563" width="8" x="1080.8076" y="97.8125"/><line style="stroke:#181818;stroke-width:0.5;stroke-dasharray:5.0,5.0;" x1="1084.7402" x2="1084.7402" y1="97.8125" y2="855.9688"/></g><g><title>api_client.rs</title><rect fill="#000000" fill-opacity="0.00000" height="758.1563" width="8" x="1195.2402" y="97.8125"/><line style="stroke:#181818;stroke-width:0.5;stroke-dasharray:5.0,5.0;" x1="1198.875" x2="1198.875" y1="97.8125" y2="855.9688"/></g><g><title>NetBox</title><rect fill="#000000" fill-opacity="0.00000" height="758.1563" width="8" x="1417.4585" y="97.8125"/><line style="stroke:#181818;stroke-width:0.5;stroke-dasharray:5.0,5.0;" x1="1420.501" x2="1420.501" y1="97.8125" y2="855.9688"/></g><g class="participant participant-head" data-participant="User"><text fill="#000000" font-family="sans-serif" font-size="14" lengthAdjust="spacing" textLength="28.4717" x="5" y="94.3945">User</text><ellipse cx="22.2358" cy="29.9063" fill="#E2E2F0" rx="8" ry="8" style="stroke:#181818;stroke-width:0.5;"/><path d="M22.2358,37.9063 L22.2358,64.9063 M9.2358,45.9063 L35.2358,45.9063 M22.2358,64.9063 L9.2358,79.9063 M22.2358,64.9063 L35.2358,79.9063" fill="none" style="stroke:#181818;stroke-width:0.5;"/></g><g class="participant participant-tail" data-participant="User"><text fill="#000000" font-family="sans-serif" font-size="14" lengthAdjust="spacing" textLength="28.4717" x="5" y="867.957">User</text><ellipse cx="22.2358" cy="879.875" fill="#E2E2F0" rx="8" ry="8" style="stroke:#181818;stroke-width:0.5;"/><path d="M22.2358,887.875 L22.2358,914.875 M9.2358,895.875 L35.2358,895.875 M22.2358,914.875 L9.2358,929.875 M22.2358,914.875 L35.2358,929.875" fill="none" style="stroke:#181818;stroke-width:0.5;"/></g><g class="participant participant-head" data-participant="Main"><rect fill="#E2E2F0" height="46.8125" rx="2.5" ry="2.5" style="stroke:#181818;stroke-width:0.5;" width="92.1211" x="271.3091" y="50"/><text fill="#000000" font-family="sans-serif" font-size="14" lengthAdjust="spacing" textLength="46.6895" x="294.0249" y="69.9883">main.rs</text><text fill="#000000" font-family="sans-serif" font-size="14" lengthAdjust="spacing" textLength="78.1211" x="278.3091" y="86.3945">(Nazara CLI)</text></g><g class="participant participant-tail" data-participant="Main"><rect fill="#E2E2F0" height="46.8125" rx="2.5" ry="2.5" style="stroke:#181818;stroke-width:0.5;" width="92.1211" x="271.3091" y="854.9688"/><text fill="#000000" font-family="sans-serif" font-size="14" lengthAdjust="spacing" textLength="46.6895" x="294.0249" y="874.957">main.rs</text><text fill="#000000" font-family="sans-serif" font-size="14" lengthAdjust="spacing" textLength="78.1211" x="278.3091" y="891.3633">(Nazara CLI)</text></g><g class="participant participant-head" data-participant="Parser"><rect fill="#E2E2F0" height="46.8125" rx="2.5" ry="2.5" style="stroke:#181818;stroke-width:0.5;" width="108.6846" x="394.417" y="50"/><text fill="#000000" font-family="sans-serif" font-size="14" lengthAdjust="spacing" textLength="55.2754" x="421.1216" y="69.9883">parser.rs</text><text fill="#000000" font-family="sans-serif" font-size="14" lengthAdjust="spacing" textLength="94.6846" x="401.417" y="86.3945">(Config Parser)</text></g><g class="participant participant-tail" data-participant="Parser"><rect fill="#E2E2F0" height="46.8125" rx="2.5" ry="2.5" style="stroke:#181818;stroke-width:0.5;" width="108.6846" x="394.417" y="854.9688"/><text fill="#000000" font-family="sans-serif" font-size="14" lengthAdjust="spacing" textLength="55.2754" x="421.1216" y="874.957">parser.rs</text><text fill="#000000" font-family="sans-serif" font-size="14" lengthAdjust="spacing" textLength="94.6846" x="401.417" y="891.3633">(Config Parser)</text></g><g class="participant participant-head" data-participant="Collectors"><rect fill="#E2E2F0" height="46.8125" rx="2.5" ry="2.5" style="stroke:#181818;stroke-width:0.5;" width="152.626" x="513.1016" y="50"/><text fill="#000000" font-family="sans-serif" font-size="14" lengthAdjust="spacing" textLength="61.4072" x="558.7109" y="69.9883">collectors</text><text fill="#000000" font-family="sans-serif" font-size="14" lengthAdjust="spacing" textLength="138.626" x="520.1016" y="86.3945">(DMI, Network, Plugin)</text></g><g class="participant participant-tail" data-participant="Collectors"><rect fill="#E2E2F0" height="46.8125" rx="2.5" ry="2.5" style="stroke:#181818;stroke-width:0.5;" width="152.626" x="513.1016" y="854.9688"/><text fill="#000000" font-family="sans-serif" font-size="14" lengthAdjust="spacing" textLength="61.4072" x="558.7109" y="874.957">collectors</text><text fill="#000000" font-family="sans-serif" font-size="14" lengthAdjust="spacing" textLength="138.626" x="520.1016" y="891.3633">(DMI, Network, Plugin)</text></g><g class="participant participant-head" data-participant="Publisher"><rect fill="#E2E2F0" height="30.4063" rx="2.5" ry="2.5" style="stroke:#181818;stroke-width:0.5;" width="87.0146" x="802.064" y="66.4063"/><text fill="#000000" font-family="sans-serif" font-size="14" lengthAdjust="spacing" textLength="73.0146" x="809.064" y="86.3945">publisher.rs</text></g><g class="participant participant-tail" data-participant="Publisher"><rect fill="#E2E2F0" height="30.4063" rx="2.5" ry="2.5" style="stroke:#181818;stroke-width:0.5;" width="87.0146" x="802.064" y="854.9688"/><text fill="#000000" font-family="sans-serif" font-size="14" lengthAdjust="spacing" textLength="73.0146" x="809.064" y="874.957">publisher.rs</text></g><g class="participant participant-head" data-participant="Translator"><rect fill="#E2E2F0" height="46.8125" rx="2.5" ry="2.5" style="stroke:#181818;stroke-width:0.5;" width="120.1348" x="1024.7402" y="50"/><text fill="#000000" font-family="sans-serif" font-size="14" lengthAdjust="spacing" textLength="75.8857" x="1046.8647" y="69.9883">translator.rs</text><text fill="#000000" font-family="sans-serif" font-size="14" lengthAdjust="spacing" textLength="106.1348" x="1031.7402" y="86.3945">(Data Translator)</text></g><g class="participant participant-tail" data-participant="Translator"><rect fill="#E2E2F0" height="46.8125" rx="2.5" ry="2.5" style="stroke:#181818;stroke-width:0.5;" width="120.1348" x="1024.7402" y="854.9688"/><text fill="#000000" font-family="sans-serif" font-size="14" lengthAdjust="spacing" textLength="75.8857" x="1046.8647" y="874.957">translator.rs</text><text fill="#000000" font-family="sans-serif" font-size="14" lengthAdjust="spacing" textLength="106.1348" x="1031.7402" y="891.3633">(Data Translator)</text></g><g class="participant participant-head" data-participant="APIClient"><rect fill="#E2E2F0" height="46.8125" rx="2.5" ry="2.5" style="stroke:#181818;stroke-width:0.5;" width="88.7305" x="1154.875" y="50"/><text fill="#000000" font-family="sans-serif" font-size="14" lengthAdjust="spacing" textLength="74.7305" x="1161.875" y="69.9883">api_client.rs</text><text fill="#000000" font-family="sans-serif" font-size="14" lengthAdjust="spacing" textLength="70.5674" x="1163.9565" y="86.3945">(API Client)</text></g><g class="participant participant-tail" data-participant="APIClient"><rect fill="#E2E2F0" height="46.8125" rx="2.5" ry="2.5" style="stroke:#181818;stroke-width:0.5;" width="88.7305" x="1154.875" y="854.9688"/><text fill="#000000" font-family="sans-serif" font-size="14" lengthAdjust="spacing" textLength="74.7305" x="1161.875" y="874.957">api_client.rs</text><text fill="#000000" font-family="sans-serif" font-size="14" lengthAdjust="spacing" textLength="70.5674" x="1163.9565" y="891.3633">(API Client)</text></g><g class="participant participant-head" data-participant="NetBox"><text fill="#000000" font-family="sans-serif" font-size="14" lengthAdjust="spacing" textLength="45.6436" x="1395.6367" y="77.9883">NetBox</text><text fill="#000000" font-family="sans-serif" font-size="14" lengthAdjust="spacing" textLength="95.915" x="1370.501" y="94.3945">(remote server)</text><ellipse cx="1421.4585" cy="13.5" fill="#E2E2F0" rx="8" ry="8" style="stroke:#181818;stroke-width:0.5;"/><path d="M1421.4585,21.5 L1421.4585,48.5 M1408.4585,29.5 L1434.4585,29.5 M1421.4585,48.5 L1408.4585,63.5 M1421.4585,48.5 L1434.4585,63.5" fill="none" style="stroke:#181818;stroke-width:0.5;"/></g><g class="participant participant-tail" data-participant="NetBox"><text fill="#000000" font-family="sans-serif" font-size="14" lengthAdjust="spacing" textLength="45.6436" x="1395.6367" y="867.957">NetBox</text><text fill="#000000" font-family="sans-serif" font-size="14" lengthAdjust="spacing" textLength="95.915" x="1370.501" y="884.3633">(remote server)</text><ellipse cx="1421.4585" cy="896.2813" fill="#E2E2F0" rx="8" ry="8" style="stroke:#181818;stroke-width:0.5;"/><path d="M1421.4585,904.2813 L1421.4585,931.2813 M1408.4585,912.2813 L1434.4585,912.2813 M1421.4585,931.2813 L1408.4585,946.2813 M1421.4585,931.2813 L1434.4585,946.2813" fill="none" style="stroke:#181818;stroke-width:0.5;"/></g><rect fill="#EEEEEE" height="3" style="stroke:#EEEEEE;stroke-width:1;" width="1477.416" x="0" y="128.4297"/><line style="stroke:#000000;stroke-width:1;" x1="0" x2="1477.416" y1="128.4297" y2="128.4297"/><line style="stroke:#000000;stroke-width:1;" x1="0" x2="1477.416" y1="131.4297" y2="131.4297"/><rect fill="#EEEEEE" height="23.2344" style="stroke:#000000;stroke-width:2;" width="114.0137" x="681.7012" y="117.8125"/><text fill="#000000" font-family="sans-serif" font-size="13" font-weight="bold" lengthAdjust="spacing" textLength="96.7764" x="687.7012" y="133.873">Startup &amp; Config</text><g class="message" data-participant-1="User" data-participant-2="Main"><polygon fill="#181818" points="305.3696,168.2813,315.3696,172.2813,305.3696,176.2813,309.3696,172.2813" style="stroke:#181818;stroke-width:1;"/><line style="stroke:#181818;stroke-width:1;" x1="22.2358" x2="311.3696" y1="172.2813" y2="172.2813"/><text fill="#000000" font-family="sans-serif" font-size="13" lengthAdjust="spacing" textLength="271.1338" x="29.2358" y="167.1074">nazara --plugin_path $PLUGIN_PATH (optional)</text></g><g class="message" data-participant-1="Main" data-participant-2="Parser"><polygon fill="#181818" points="436.7593,197.5156,446.7593,201.5156,436.7593,205.5156,440.7593,201.5156" style="stroke:#181818;stroke-width:1;"/><line style="stroke:#181818;stroke-width:1;" x1="317.3696" x2="442.7593" y1="201.5156" y2="201.5156"/><text fill="#000000" font-family="sans-serif" font-size="13" lengthAdjust="spacing" textLength="107.3896" x="324.3696" y="196.3418">parse(config.toml)</text></g><g class="message" data-participant-1="Parser" data-participant-2="Main"><polygon fill="#181818" points="328.3696,226.75,318.3696,230.75,328.3696,234.75,324.3696,230.75" style="stroke:#181818;stroke-width:1;"/><line style="stroke:#181818;stroke-width:1;stroke-dasharray:2.0,2.0;" x1="322.3696" x2="447.7593" y1="230.75" y2="230.75"/><text fill="#000000" font-family="sans-serif" font-size="13" lengthAdjust="spacing" textLength="75.8608" x="334.3696" y="225.5762">Config Struct</text></g><rect fill="#EEEEEE" height="3" style="stroke:#EEEEEE;stroke-width:1;" width="1477.416" x="0" y="259.3672"/><line style="stroke:#000000;stroke-width:1;" x1="0" x2="1477.416" y1="259.3672" y2="259.3672"/><line style="stroke:#000000;stroke-width:1;" x1="0" x2="1477.416" y1="262.3672" y2="262.3672"/><rect fill="#EEEEEE" height="23.2344" style="stroke:#000000;stroke-width:2;" width="106.3013" x="685.5574" y="248.75"/><text fill="#000000" font-family="sans-serif" font-size="13" font-weight="bold" lengthAdjust="spacing" textLength="89.064" x="691.5574" y="264.8105">Data Collection</text><g class="message" data-participant-1="Main" data-participant-2="Collectors"><polygon fill="#181818" points="577.4146,299.2188,587.4146,303.2188,577.4146,307.2188,581.4146,303.2188" style="stroke:#181818;stroke-width:1;"/><line style="stroke:#181818;stroke-width:1;" x1="317.3696" x2="583.4146" y1="303.2188" y2="303.2188"/><text fill="#000000" font-family="sans-serif" font-size="13" lengthAdjust="spacing" textLength="103.105" x="324.3696" y="298.0449">collect_all(config)</text></g><g class="message" data-participant-1="Collectors" data-participant-2="Collectors"><line style="stroke:#181818;stroke-width:1;" x1="589.4146" x2="631.4146" y1="332.4531" y2="332.4531"/><line style="stroke:#181818;stroke-width:1;" x1="631.4146" x2="631.4146" y1="332.4531" y2="345.4531"/><line style="stroke:#181818;stroke-width:1;" x1="590.4146" x2="631.4146" y1="345.4531" y2="345.4531"/><polygon fill="#181818" points="600.4146,341.4531,590.4146,345.4531,600.4146,349.4531,596.4146,345.4531" style="stroke:#181818;stroke-width:1;"/><text fill="#000000" font-family="sans-serif" font-size="13" lengthAdjust="spacing" textLength="192.937" x="596.4146" y="327.2793">dmi::construct_dmi_information()</text></g><g class="message" data-participant-1="Collectors" data-participant-2="Main"><polygon fill="#181818" points="328.3696,370.6875,318.3696,374.6875,328.3696,378.6875,324.3696,374.6875" style="stroke:#181818;stroke-width:1;"/><line style="stroke:#181818;stroke-width:1;stroke-dasharray:2.0,2.0;" x1="322.3696" x2="588.4146" y1="374.6875" y2="374.6875"/><text fill="#000000" font-family="sans-serif" font-size="13" lengthAdjust="spacing" textLength="90.6255" x="334.3696" y="369.5137">DmiInformation</text></g><g class="message" data-participant-1="Collectors" data-participant-2="Collectors"><line style="stroke:#181818;stroke-width:1;" x1="589.4146" x2="631.4146" y1="403.9219" y2="403.9219"/><line style="stroke:#181818;stroke-width:1;" x1="631.4146" x2="631.4146" y1="403.9219" y2="416.9219"/><line style="stroke:#181818;stroke-width:1;" x1="590.4146" x2="631.4146" y1="416.9219" y2="416.9219"/><polygon fill="#181818" points="600.4146,412.9219,590.4146,416.9219,600.4146,420.9219,596.4146,416.9219" style="stroke:#181818;stroke-width:1;"/><text fill="#000000" font-family="sans-serif" font-size="13" lengthAdjust="spacing" textLength="242.1567" x="596.4146" y="398.748">network::construct_network_information()</text></g><g class="message" data-participant-1="Collectors" data-participant-2="Main"><polygon fill="#181818" points="328.3696,442.1563,318.3696,446.1563,328.3696,450.1563,324.3696,446.1563" style="stroke:#181818;stroke-width:1;"/><line style="stroke:#181818;stroke-width:1;stroke-dasharray:2.0,2.0;" x1="322.3696" x2="588.4146" y1="446.1563" y2="446.1563"/><text fill="#000000" font-family="sans-serif" font-size="13" lengthAdjust="spacing" textLength="151.5122" x="334.3696" y="440.9824">Vec&lt;NetworkInformation&gt;</text></g><g class="message" data-participant-1="Collectors" data-participant-2="Collectors"><line style="stroke:#181818;stroke-width:1;" x1="589.4146" x2="631.4146" y1="475.3906" y2="475.3906"/><line style="stroke:#181818;stroke-width:1;" x1="631.4146" x2="631.4146" y1="475.3906" y2="488.3906"/><line style="stroke:#181818;stroke-width:1;" x1="590.4146" x2="631.4146" y1="488.3906" y2="488.3906"/><polygon fill="#181818" points="600.4146,484.3906,590.4146,488.3906,600.4146,492.3906,596.4146,488.3906" style="stroke:#181818;stroke-width:1;"/><text fill="#000000" font-family="sans-serif" font-size="13" lengthAdjust="spacing" textLength="162.811" x="596.4146" y="470.2168">plugin::execute(plugin_path)</text></g><g class="message" data-participant-1="Collectors" data-participant-2="Main"><polygon fill="#181818" points="328.3696,513.625,318.3696,517.625,328.3696,521.625,324.3696,517.625" style="stroke:#181818;stroke-width:1;"/><line style="stroke:#181818;stroke-width:1;stroke-dasharray:2.0,2.0;" x1="322.3696" x2="588.4146" y1="517.625" y2="517.625"/><text fill="#000000" font-family="sans-serif" font-size="13" lengthAdjust="spacing" textLength="193.3687" x="334.3696" y="512.4512">Option&lt;HashMap&lt;String, Value&gt;&gt;</text></g><rect fill="#EEEEEE" height="3" style="stroke:#EEEEEE;stroke-width:1;" width="1477.416" x="0" y="546.2422"/><line style="stroke:#000000;stroke-width:1;" x1="0" x2="1477.416" y1="546.2422" y2="546.2422"/><line style="stroke:#000000;stroke-width:1;" x1="0" x2="1477.416" y1="549.2422" y2="549.2422"/><rect fill="#EEEEEE" height="23.2344" style="stroke:#000000;stroke-width:2;" width="172.7422" x="652.3369" y="535.625"/><text fill="#000000" font-family="sans-serif" font-size="13" font-weight="bold" lengthAdjust="spacing" textLength="155.5049" x="658.3369" y="551.6855">Data Translation &amp; Publish</text><g class="message" data-participant-1="Main" data-participant-2="Publisher"><polygon fill="#181818" points="833.5713,586.0938,843.5713,590.0938,833.5713,594.0938,837.5713,590.0938" style="stroke:#181818;stroke-width:1;"/><line style="stroke:#181818;stroke-width:1;" x1="317.3696" x2="839.5713" y1="590.0938" y2="590.0938"/><text fill="#000000" font-family="sans-serif" font-size="13" lengthAdjust="spacing" textLength="108.5322" x="324.3696" y="584.9199">register_machine()</text></g><g class="message" data-participant-1="Publisher" data-participant-2="Translator"><polygon fill="#181818" points="1072.8076,615.3281,1082.8076,619.3281,1072.8076,623.3281,1076.8076,619.3281" style="stroke:#181818;stroke-width:1;"/><line style="stroke:#181818;stroke-width:1;" x1="845.5713" x2="1078.8076" y1="619.3281" y2="619.3281"/><text fill="#000000" font-family="sans-serif" font-size="13" lengthAdjust="spacing" textLength="215.2363" x="852.5713" y="614.1543">invoke translation for current payload</text></g><g class="message" data-participant-1="Publisher" data-participant-2="APIClient"><polygon fill="#181818" points="1187.2402,644.5625,1197.2402,648.5625,1187.2402,652.5625,1191.2402,648.5625" style="stroke:#181818;stroke-width:1;"/><line style="stroke:#181818;stroke-width:1;" x1="845.5713" x2="1193.2402" y1="648.5625" y2="648.5625"/><text fill="#000000" font-family="sans-serif" font-size="13" lengthAdjust="spacing" textLength="225.0244" x="852.5713" y="643.3887">make POST/PATCH request as needed</text></g><g class="message" data-participant-1="APIClient" data-participant-2="NetBox"><polygon fill="#181818" points="1409.4585,673.7969,1419.4585,677.7969,1409.4585,681.7969,1413.4585,677.7969" style="stroke:#181818;stroke-width:1;"/><line style="stroke:#181818;stroke-width:1;" x1="1199.2402" x2="1415.4585" y1="677.7969" y2="677.7969"/><text fill="#000000" font-family="sans-serif" font-size="13" lengthAdjust="spacing" textLength="198.2183" x="1206.2402" y="672.623">POST/PATCH /api/... with payload</text></g><g class="message" data-participant-1="NetBox" data-participant-2="APIClient"><polygon fill="#181818" points="1210.2402,703.0313,1200.2402,707.0313,1210.2402,711.0313,1206.2402,707.0313" style="stroke:#181818;stroke-width:1;"/><line style="stroke:#181818;stroke-width:1;stroke-dasharray:2.0,2.0;" x1="1204.2402" x2="1420.4585" y1="707.0313" y2="707.0313"/><text fill="#000000" font-family="sans-serif" font-size="13" lengthAdjust="spacing" textLength="82.0752" x="1216.2402" y="701.8574">200 OK / Error</text></g><g class="message" data-participant-1="APIClient" data-participant-2="Publisher"><polygon fill="#181818" points="856.5713,732.2656,846.5713,736.2656,856.5713,740.2656,852.5713,736.2656" style="stroke:#181818;stroke-width:1;"/><line style="stroke:#181818;stroke-width:1;stroke-dasharray:2.0,2.0;" x1="850.5713" x2="1198.2402" y1="736.2656" y2="736.2656"/><text fill="#000000" font-family="sans-serif" font-size="13" lengthAdjust="spacing" textLength="57.1099" x="862.5713" y="731.0918">Response</text></g><rect fill="#EEEEEE" height="3" style="stroke:#EEEEEE;stroke-width:1;" width="1477.416" x="0" y="764.8828"/><line style="stroke:#000000;stroke-width:1;" x1="0" x2="1477.416" y1="764.8828" y2="764.8828"/><line style="stroke:#000000;stroke-width:1;" x1="0" x2="1477.416" y1="767.8828" y2="767.8828"/><rect fill="#EEEEEE" height="23.2344" style="stroke:#000000;stroke-width:2;" width="75.5405" x="700.9377" y="754.2656"/><text fill="#000000" font-family="sans-serif" font-size="13" font-weight="bold" lengthAdjust="spacing" textLength="58.3032" x="706.9377" y="770.3262">Teardown</text><g class="message" data-participant-1="Publisher" data-participant-2="Main"><polygon fill="#181818" points="328.3696,804.7344,318.3696,808.7344,328.3696,812.7344,324.3696,808.7344" style="stroke:#181818;stroke-width:1;"/><line style="stroke:#181818;stroke-width:1;stroke-dasharray:2.0,2.0;" x1="322.3696" x2="844.5713" y1="808.7344" y2="808.7344"/><text fill="#000000" font-family="sans-serif" font-size="13" lengthAdjust="spacing" textLength="64.3398" x="334.3696" y="803.5605">Ok() / Error</text></g><g class="message" data-participant-1="Main" data-participant-2="User"><polygon fill="#181818" points="33.2358,833.9688,23.2358,837.9688,33.2358,841.9688,29.2358,837.9688" style="stroke:#181818;stroke-width:1;"/><line style="stroke:#181818;stroke-width:1;stroke-dasharray:2.0,2.0;" x1="27.2358" x2="316.3696" y1="837.9688" y2="837.9688"/><text fill="#000000" font-family="sans-serif" font-size="13" lengthAdjust="spacing" textLength="52.4253" x="39.2358" y="832.7949">exit code</text></g></g></svg>