<svg xmlns="http://www.w3.org/2000/svg" xmlns:xlink="http://www.w3.org/1999/xlink" contentStyleType="text/css" data-diagram-type="DESCRIPTION" height="216px" preserveAspectRatio="none" style="width:518px;height:216px;background:#FFFFFF;" version="1.1" viewBox="0 0 518 216" width="518px" zoomAndPan="magnify"><defs/><g><!--cluster Nazara--><g class="cluster" data-entity="Nazara" data-source-line="1" data-uid="ent0002" id="cluster_Nazara"><path d="M8.5,6 L54.1523,6 A3.75,3.75 0 0 1 56.6523,8.5 L63.6523,28.4063 L268.5,28.4063 A2.5,2.5 0 0 1 271,30.9063 L271,206.5 A2.5,2.5 0 0 1 268.5,209 L8.5,209 A2.5,2.5 0 0 1 6,206.5 L6,8.5 A2.5,2.5 0 0 1 8.5,6" fill="none" style="stroke:#000000;stroke-width:1.5;"/><line style="stroke:#000000;stroke-width:1.5;" x1="6" x2="63.6523" y1="28.4063" y2="28.4063"/><text fill="#000000" font-family="sans-serif" font-size="14" font-weight="bold" lengthAdjust="spacing" textLength="44.6523" x="10" y="20.9883">Nazara</text></g><!--cluster thanix_client--><g class="cluster" data-entity="thanix_client" data-source-line="8" data-uid="ent0007" id="cluster_thanix_client"><path d="M297.5,6 L378.3848,6 A3.75,3.75 0 0 1 380.8848,8.5 L387.8848,28.4063 L508.5,28.4063 A2.5,2.5 0 0 1 511,30.9063 L511,100.5 A2.5,2.5 0 0 1 508.5,103 L297.5,103 A2.5,2.5 0 0 1 295,100.5 L295,8.5 A2.5,2.5 0 0 1 297.5,6" fill="none" style="stroke:#000000;stroke-width:1.5;"/><line style="stroke:#000000;stroke-width:1.5;" x1="295" x2="387.8848" y1="28.4063" y2="28.4063"/><text fill="#000000" font-family="sans-serif" font-size="14" font-weight="bold" lengthAdjust="spacing" textLength="79.8848" x="299" y="20.9883">thanix_client</text></g><!--entity main--><g class="entity" data-entity="main" data-source-line="2" data-uid="ent0003" id="entity_main"><rect fill="#F1F1F1" height="46.4063" rx="2.5" ry="2.5" style="stroke:#181818;stroke-width:0.5;" width="71.0283" x="25.5" y="41"/><rect fill="#F1F1F1" height="10" style="stroke:#181818;stroke-width:0.5;" width="15" x="76.5283" y="46"/><rect fill="#F1F1F1" height="2" style="stroke:#181818;stroke-width:0.5;" width="4" x="74.5283" y="48"/><rect fill="#F1F1F1" height="2" style="stroke:#181818;stroke-width:0.5;" width="4" x="74.5283" y="52"/><text fill="#000000" font-family="sans-serif" font-size="14" lengthAdjust="spacing" textLength="31.0283" x="40.5" y="73.9883">main</text></g><!--entity configuration--><g class="entity" data-entity="configuration" data-source-line="3" data-uid="ent0004" id="entity_configuration"><rect fill="#F1F1F1" height="46.4063" rx="2.5" ry="2.5" style="stroke:#181818;stroke-width:0.5;" width="122.9541" x="131.5" y="41"/><rect fill="#F1F1F1" height="10" style="stroke:#181818;stroke-width:0.5;" width="15" x="234.4541" y="46"/><rect fill="#F1F1F1" height="2" style="stroke:#181818;stroke-width:0.5;" width="4" x="232.4541" y="48"/><rect fill="#F1F1F1" height="2" style="stroke:#181818;stroke-width:0.5;" width="4" x="232.4541" y="52"/><text fill="#000000" font-family="sans-serif" font-size="14" lengthAdjust="spacing" textLength="82.9541" x="146.5" y="73.9883">configuration</text></g><!--entity collectors--><g class="entity" data-entity="collectors" data-source-line="4" data-uid="ent0005" id="entity_collectors"><rect fill="#F1F1F1" height="46.4063" rx="2.5" ry="2.5" style="stroke:#181818;stroke-width:0.5;" width="101.4072" x="22.5" y="147"/><rect fill="#F1F1F1" height="10" style="stroke:#181818;stroke-width:0.5;" width="15" x="103.9072" y="152"/><rect fill="#F1F1F1" height="2" style="stroke:#181818;stroke-width:0.5;" width="4" x="101.9072" y="154"/><rect fill="#F1F1F1" height="2" style="stroke:#181818;stroke-width:0.5;" width="4" x="101.9072" y="158"/><text fill="#000000" font-family="sans-serif" font-size="14" lengthAdjust="spacing" textLength="61.4072" x="37.5" y="179.9883">collectors</text></g><!--entity publisher--><g class="entity" data-entity="publisher" data-source-line="5" data-uid="ent0006" id="entity_publisher"><rect fill="#F1F1F1" height="46.4063" rx="2.5" ry="2.5" style="stroke:#181818;stroke-width:0.5;" width="97.3535" x="158.5" y="147"/><rect fill="#F1F1F1" height="10" style="stroke:#181818;stroke-width:0.5;" width="15" x="235.8535" y="152"/><rect fill="#F1F1F1" height="2" style="stroke:#181818;stroke-width:0.5;" width="4" x="233.8535" y="154"/><rect fill="#F1F1F1" height="2" style="stroke:#181818;stroke-width:0.5;" width="4" x="233.8535" y="158"/><text fill="#000000" font-family="sans-serif" font-size="14" lengthAdjust="spacing" textLength="57.3535" x="173.5" y="179.9883">publisher</text></g><!--entity types--><g class="entity" data-entity="types" data-source-line="9" data-uid="ent0008" id="entity_types"><rect fill="#F1F1F1" height="46.4063" rx="2.5" ry="2.5" style="stroke:#181818;stroke-width:0.5;" width="73.7148" x="421" y="41"/><rect fill="#F1F1F1" height="10" style="stroke:#181818;stroke-width:0.5;" width="15" x="474.7148" y="46"/><rect fill="#F1F1F1" height="2" style="stroke:#181818;stroke-width:0.5;" width="4" x="472.7148" y="48"/><rect fill="#F1F1F1" height="2" style="stroke:#181818;stroke-width:0.5;" width="4" x="472.7148" y="52"/><text fill="#000000" font-family="sans-serif" font-size="14" lengthAdjust="spacing" textLength="33.7148" x="436" y="73.9883">types</text></g><!--entity paths--><g class="entity" data-entity="paths" data-source-line="10" data-uid="ent0009" id="entity_paths"><rect fill="#F1F1F1" height="46.4063" rx="2.5" ry="2.5" style="stroke:#181818;stroke-width:0.5;" width="74.9932" x="310.5" y="41"/><rect fill="#F1F1F1" height="10" style="stroke:#181818;stroke-width:0.5;" width="15" x="365.4932" y="46"/><rect fill="#F1F1F1" height="2" style="stroke:#181818;stroke-width:0.5;" width="4" x="363.4932" y="48"/><rect fill="#F1F1F1" height="2" style="stroke:#181818;stroke-width:0.5;" width="4" x="363.4932" y="52"/><text fill="#000000" font-family="sans-serif" font-size="14" lengthAdjust="spacing" textLength="34.9932" x="325.5" y="73.9883">paths</text></g></g></svg>